<?xml version="1.0" encoding="utf-8"?>
<!-- Generator: Adobe Illustrator 18.1.1, SVG Export Plug-In . SVG Version: 6.00 Build 0)  -->
<svg version="1.1" id="Layer_1" xmlns="http://www.w3.org/2000/svg" xmlns:xlink="http://www.w3.org/1999/xlink" x="0px" y="0px"
	 viewBox="0 0 521.2 251.8" enable-background="new 0 0 521.2 251.8" xml:space="preserve">
<g>
	
		<linearGradient id="SVGID_1_" gradientUnits="userSpaceOnUse" x1="45.8678" y1="-92.6478" x2="57.8667" y2="-39.6476" gradientTransform="matrix(1.1656 -4.460000e-002 4.460000e-002 1.1656 -41.2247 170.299)">
		<stop  offset="0" style="stop-color:#1D2C5F"/>
		<stop  offset="1" style="stop-color:#0071B9"/>
	</linearGradient>
	<polygon fill="url(#SVGID_1_)" points="23.3,110.2 30.4,102.9 7.2,63.6 0,70.9 	"/>
	
		<linearGradient id="SVGID_2_" gradientUnits="userSpaceOnUse" x1="329.8134" y1="-113.081" x2="323.3139" y2="-90.0809" gradientTransform="matrix(1.1664 0 0 1.1664 -33.6702 166.171)">
		<stop  offset="0" style="stop-color:#1D2C5F"/>
		<stop  offset="1" style="stop-color:#0071B9"/>
	</linearGradient>
	<polygon fill="url(#SVGID_2_)" points="344.5,45.2 353.3,40.5 354.2,35.3 345.4,40 	"/>
	
		<linearGradient id="SVGID_3_" gradientUnits="userSpaceOnUse" x1="264.0635" y1="-142.907" x2="250.0635" y2="-108.9071" gradientTransform="matrix(1.1664 0 0 1.1664 -29.2719 161.0437)">
		<stop  offset="0" style="stop-color:#1D2C5F"/>
		<stop  offset="1" style="stop-color:#0071B9"/>
	</linearGradient>
	<polygon fill="url(#SVGID_3_)" points="244.7,45.7 253.7,41 289.3,0 280.5,4.7 	"/>
	
		<linearGradient id="SVGID_4_" gradientUnits="userSpaceOnUse" x1="438.5836" y1="-102.7302" x2="427.5838" y2="-72.2301" gradientTransform="matrix(1.1664 0 0 1.1664 -30.3412 167.4346)">
		<stop  offset="0" style="stop-color:#1D2C5F"/>
		<stop  offset="1" style="stop-color:#0071B9"/>
	</linearGradient>
	<polygon fill="url(#SVGID_4_)" points="472,60.8 480.8,56 476.9,71.9 468.2,76.4 	"/>
	
		<linearGradient id="SVGID_5_" gradientUnits="userSpaceOnUse" x1="423.7425" y1="8.567" x2="421.2422" y2="-118.933" gradientTransform="matrix(1.1664 0 0 1.1664 -31.2159 167.7262)">
		<stop  offset="0" style="stop-color:#1D2C5F"/>
		<stop  offset="1" style="stop-color:#0071B9"/>
	</linearGradient>
	<polygon fill="url(#SVGID_5_)" points="473.5,187.6 482.3,183 452.6,173.5 443.8,178.2 	"/>
	
		<linearGradient id="SVGID_6_" gradientUnits="userSpaceOnUse" x1="380.7943" y1="-71.2677" x2="418.7943" y2="-106.7679" gradientTransform="matrix(1.1664 0 0 1.1664 -30.3412 167.4346)">
		<stop  offset="0" style="stop-color:#1D2C5F"/>
		<stop  offset="1" style="stop-color:#0071B9"/>
	</linearGradient>
	<polygon fill="url(#SVGID_6_)" points="424.7,76.6 433.4,72 426.3,70.4 417.4,74.9 	"/>
	
		<linearGradient id="SVGID_7_" gradientUnits="userSpaceOnUse" x1="242.9969" y1="12.1114" x2="240.4966" y2="-115.3886" gradientTransform="matrix(1.1664 0 0 1.1664 -36.8292 164.9561)">
		<stop  offset="0" style="stop-color:#1D2C5F"/>
		<stop  offset="1" style="stop-color:#0071B9"/>
	</linearGradient>
	<polygon fill="url(#SVGID_7_)" points="244.2,56.8 251.8,52.8 245.5,57.8 236.6,62.5 	"/>
	
		<linearGradient id="SVGID_8_" gradientUnits="userSpaceOnUse" x1="410.7372" y1="8.8221" x2="408.237" y2="-118.6779" gradientTransform="matrix(1.1664 0 0 1.1664 -30.8516 167.5804)">
		<stop  offset="0" style="stop-color:#1D2C5F"/>
		<stop  offset="1" style="stop-color:#0071B9"/>
	</linearGradient>
	<polygon fill="url(#SVGID_8_)" points="443.6,166.5 452.3,161.9 452.6,173.5 443.8,178.2 	"/>
	
		<linearGradient id="SVGID_9_" gradientUnits="userSpaceOnUse" x1="393.5474" y1="-102.3971" x2="379.5476" y2="-79.397" gradientTransform="matrix(1.1664 9.700000e-003 -9.700000e-003 1.1664 -31.262 163.7423)">
		<stop  offset="0" style="stop-color:#1D2C5F"/>
		<stop  offset="1" style="stop-color:#0071B9"/>
	</linearGradient>
	<polygon fill="url(#SVGID_9_)" points="417.4,74.9 426.3,70.4 425.8,43.9 417.1,48.7 	"/>
	<polygon fill="#312370" points="415,162.4 423.8,157.8 433.3,72 424.7,76.6 	"/>
	
		<linearGradient id="SVGID_10_" gradientUnits="userSpaceOnUse" x1="398.825" y1="9.0556" x2="396.3248" y2="-118.4443" gradientTransform="matrix(1.1664 0 0 1.1664 -31.2159 167.7262)">
		<stop  offset="0" style="stop-color:#1D2C5F"/>
		<stop  offset="1" style="stop-color:#0071B9"/>
	</linearGradient>
	<polygon fill="url(#SVGID_10_)" points="443.6,166.5 452.3,161.9 423.8,157.8 415,162.4 	"/>
	
		<linearGradient id="SVGID_11_" gradientUnits="userSpaceOnUse" x1="356.0247" y1="4.28" x2="351.024" y2="-116.72" gradientTransform="matrix(1.1664 0 0 1.1664 -35.2984 163.0607)">
		<stop  offset="0" style="stop-color:#1D2C5F"/>
		<stop  offset="1" style="stop-color:#0071B9"/>
	</linearGradient>
	<polygon fill="url(#SVGID_11_)" points="396.9,165.9 405.5,161.2 362.5,153.6 353.8,158.3 	"/>
	
		<linearGradient id="SVGID_12_" gradientUnits="userSpaceOnUse" x1="336.5458" y1="10.2769" x2="334.0456" y2="-117.2231" gradientTransform="matrix(1.1664 0 0 1.1664 -35.0068 162.4774)">
		<stop  offset="0" style="stop-color:#1D2C5F"/>
		<stop  offset="1" style="stop-color:#0071B9"/>
	</linearGradient>
	<polygon fill="url(#SVGID_12_)" points="353.8,158.3 362.5,153.6 360.3,134.4 351.5,139.1 	"/>
	
		<linearGradient id="SVGID_13_" gradientUnits="userSpaceOnUse" x1="326.4601" y1="10.4747" x2="323.9598" y2="-117.0253" gradientTransform="matrix(1.1664 0 0 1.1664 -35.1038 162.4774)">
		<stop  offset="0" style="stop-color:#1D2C5F"/>
		<stop  offset="1" style="stop-color:#0071B9"/>
	</linearGradient>
	<polygon fill="url(#SVGID_13_)" points="345.5,150.7 354.2,145.9 344.5,127.8 335.7,132.7 	"/>
	
		<linearGradient id="SVGID_14_" gradientUnits="userSpaceOnUse" x1="304.4055" y1="6.4133" x2="299.4047" y2="-114.5867" gradientTransform="matrix(1.1664 0 0 1.1664 -34.9096 162.2831)">
		<stop  offset="0" style="stop-color:#1D2C5F"/>
		<stop  offset="1" style="stop-color:#0071B9"/>
	</linearGradient>
	<polygon fill="url(#SVGID_14_)" points="333.6,146.1 342.2,141.4 304.4,135.4 295.7,140 	"/>
	
		<linearGradient id="SVGID_15_" gradientUnits="userSpaceOnUse" x1="288.1465" y1="-61.2647" x2="326.6465" y2="-64.7644" gradientTransform="matrix(1.1664 0 0 1.1664 -34.9096 162.2831)">
		<stop  offset="0" style="stop-color:#1D2C5F"/>
		<stop  offset="1" style="stop-color:#0071B9"/>
	</linearGradient>
	<polygon fill="url(#SVGID_15_)" points="295.7,140 304.4,135.4 319.9,40.5 311.2,45.2 	"/>
	
		<linearGradient id="SVGID_16_" gradientUnits="userSpaceOnUse" x1="231.4673" y1="-90.8916" x2="293.4672" y2="-133.3917" gradientTransform="matrix(1.1664 0 0 1.1664 -29.2719 161.1167)">
		<stop  offset="0" style="stop-color:#1D2C5F"/>
		<stop  offset="1" style="stop-color:#0071B9"/>
	</linearGradient>
	<polygon fill="url(#SVGID_16_)" points="251,53.1 259.8,48.6 253.7,41.1 244.7,45.7 	"/>
	
		<linearGradient id="SVGID_17_" gradientUnits="userSpaceOnUse" x1="237.2552" y1="12.224" x2="234.755" y2="-115.276" gradientTransform="matrix(1.1651 5.600000e-002 -5.600000e-002 1.1651 -37.6517 151.7298)">
		<stop  offset="0" style="stop-color:#1D2C5F"/>
		<stop  offset="1" style="stop-color:#0071B9"/>
	</linearGradient>
	<polygon fill="url(#SVGID_17_)" points="199.5,130.3 208.2,125.6 278.6,160.4 269.8,165.1 	"/>
	
		<linearGradient id="SVGID_18_" gradientUnits="userSpaceOnUse" x1="212.4687" y1="-118.0039" x2="203.4686" y2="-97.5039" gradientTransform="matrix(1.1664 0 0 1.1664 -35.6386 164.9561)">
		<stop  offset="0" style="stop-color:#1D2C5F"/>
		<stop  offset="1" style="stop-color:#0071B9"/>
	</linearGradient>
	<polygon fill="url(#SVGID_18_)" points="195.5,55.7 204.3,50.9 214.9,30.8 206.1,35.6 	"/>
	
		<linearGradient id="SVGID_19_" gradientUnits="userSpaceOnUse" x1="192.5438" y1="13.1007" x2="190.0436" y2="-114.3993" gradientTransform="matrix(1.1663 1.820000e-002 -1.820000e-002 1.1663 -37.2211 156.0918)">
		<stop  offset="0" style="stop-color:#1D2C5F"/>
		<stop  offset="1" style="stop-color:#0071B9"/>
	</linearGradient>
	<polygon fill="url(#SVGID_19_)" points="165.8,165.5 174.7,160.8 208.3,155.8 199.3,160.5 	"/>
	
		<linearGradient id="SVGID_20_" gradientUnits="userSpaceOnUse" x1="186.3883" y1="-38.2314" x2="151.8883" y2="-30.7313" gradientTransform="matrix(1.1663 1.820000e-002 -1.820000e-002 1.1663 -37.2211 156.0918)">
		<stop  offset="0" style="stop-color:#1D2C5F"/>
		<stop  offset="1" style="stop-color:#0071B9"/>
	</linearGradient>
	<polygon fill="url(#SVGID_20_)" points="165.8,165.5 174.7,160.8 166.3,70.3 157.6,75 	"/>
	
		<linearGradient id="SVGID_21_" gradientUnits="userSpaceOnUse" x1="160.5494" y1="-106.0139" x2="161.5489" y2="-71.5139" gradientTransform="matrix(1.1664 0 0 1.1664 -34.7152 164.397)">
		<stop  offset="0" style="stop-color:#1D2C5F"/>
		<stop  offset="1" style="stop-color:#0071B9"/>
	</linearGradient>
	<polygon fill="url(#SVGID_21_)" points="149.4,77.1 158.2,72.4 156.9,46.8 148.1,51.5 	"/>
	
		<linearGradient id="SVGID_22_" gradientUnits="userSpaceOnUse" x1="111.8844" y1="14.6824" x2="109.3841" y2="-112.8176" gradientTransform="matrix(1.1656 -4.460000e-002 4.460000e-002 1.1656 -39.4506 169.74)">
		<stop  offset="0" style="stop-color:#1D2C5F"/>
		<stop  offset="1" style="stop-color:#0071B9"/>
	</linearGradient>
	<polygon fill="url(#SVGID_22_)" points="78.2,185.4 69.4,191.3 105,179.9 113.9,174.1 	"/>
	
		<linearGradient id="SVGID_23_" gradientUnits="userSpaceOnUse" x1="84.9993" y1="-14.0923" x2="54" y2="-100.5926" gradientTransform="matrix(1.1656 -4.460000e-002 4.460000e-002 1.1656 -41.5892 170.5176)">
		<stop  offset="0" style="stop-color:#1D2C5F"/>
		<stop  offset="1" style="stop-color:#0071B9"/>
	</linearGradient>
	<polygon fill="url(#SVGID_23_)" points="39.3,98.7 32,106.4 69.4,191.3 78.2,185.4 	"/>
	
		<linearGradient id="SVGID_24_" gradientUnits="userSpaceOnUse" x1="151.6541" y1="3.706" x2="127.1538" y2="-90.794" gradientTransform="matrix(1.1524 -0.1803 0.1803 1.1524 -31.2802 190.3406)">
		<stop  offset="0" style="stop-color:#1D2C5F"/>
		<stop  offset="1" style="stop-color:#0071B9"/>
	</linearGradient>
	<path fill="url(#SVGID_24_)" d="M134.5,156.7c-9.2-2.7-16.6-9-20.8-18c-2.1-4.5-4.1-14.8-4.2-19.8c-2,2.3-6.1,4.8-9,6.2
		c0,0,1.9,10,4.4,17c2.5,7,8.4,12.6,8.4,12.6c3.8,3.7,8.4,6.3,13.6,7.8c9.9,2.9,21.1,1,30.8-5.1c2.5-1.6,5.9-4.2,8-6.2
		C156.2,157.1,144.2,159.5,134.5,156.7z"/>
	
		<linearGradient id="SVGID_25_" gradientUnits="userSpaceOnUse" x1="166.8589" y1="13.6044" x2="164.3587" y2="-113.8956" gradientTransform="matrix(1.1664 0 0 1.1664 -34.7152 164.397)">
		<stop  offset="0" style="stop-color:#1D2C5F"/>
		<stop  offset="1" style="stop-color:#0071B9"/>
	</linearGradient>
	<polygon fill="url(#SVGID_25_)" points="149.4,77.1 157.6,75 166.3,70.3 158.2,72.4 	"/>
	
		<linearGradient id="SVGID_26_" gradientUnits="userSpaceOnUse" x1="66.1194" y1="15.5798" x2="63.6191" y2="-111.9201" gradientTransform="matrix(1.1664 0 0 1.1664 -44.2649 167.1918)">
		<stop  offset="0" style="stop-color:#1D2C5F"/>
		<stop  offset="1" style="stop-color:#0071B9"/>
	</linearGradient>
	<polygon fill="url(#SVGID_26_)" points="23.3,110.2 30.4,102.9 39.3,98.7 32,106.4 	"/>
	<g>
		
			<linearGradient id="SVGID_27_" gradientUnits="userSpaceOnUse" x1="384.979" y1="9.3272" x2="382.4788" y2="-118.1728" gradientTransform="matrix(1.1632 8.720000e-002 -8.720000e-002 1.1632 -34.6606 134.2692)">
			<stop  offset="0" style="stop-color:#1D2C5F"/>
			<stop  offset="1" style="stop-color:#0071B9"/>
		</linearGradient>
		<path fill="url(#SVGID_27_)" d="M403,146.5l0.5,4.2c3.1-0.4,6.3-0.8,9-1.7c3.2-1.1,10.2-4.2,12.8-6.5c-1,0.4-5.7,2.6-6.7,2.9
			C413.5,146.8,408.1,147,403,146.5z"/>
	</g>
	<g>
		
			<linearGradient id="SVGID_28_" gradientUnits="userSpaceOnUse" x1="281.9612" y1="11.3473" x2="279.461" y2="-116.1527" gradientTransform="matrix(1.3092 -2.320000e-002 2.150000e-002 1.4152 -74.562 171.825)">
			<stop  offset="0" style="stop-color:#1D2C5F"/>
			<stop  offset="1" style="stop-color:#0071B9"/>
		</linearGradient>
		<path fill="url(#SVGID_28_)" d="M278.4,126.7l0.1,4.8c7.2-1.1,13.4-3.7,19.5-7.4c3.8-2.3,8-5.7,9.3-6.6c-0.9,0.6-1.9,1-2.8,1.5
			C298.8,122.1,283.8,126.6,278.4,126.7z"/>
	</g>
	<path fill="#FFCB05" d="M480.8,56.1l-3.8,15.8l-3.5-17.5L425.9,44l0.3,26.4l7.2,1.6l-0.5,4.8c-0.1,0-0.1-0.1-0.2-0.1
		c-8.9-4.7-19.9-5.2-30.2-1.3c-3.5,1.3-6.7,3.1-9.6,5.2l-7.1-45.2h-31.6l-0.9,5.2h-33.2l-3.8,23.3l-2.8-3.4
		c-8.1-9.9-19.7-15.4-32.7-15.6l28.2-15.2L289.2,0.2l-35.6,41l6.2,7.5c-5.6,2.3-10.4,5.4-14.4,9.2l-30.5-27.1l-10.7,20.4l0.4-19.6
		l-47.7,15.2l1.2,25.6l8.1-2.1l1.2,13c-9.3-4.2-20.4-4.1-30.7,0.3c-3.1,1.3-5.9,3-8.6,4.9c1.8-7.9,1.4-15.7-1.6-22.7
		c-3.6-8.2-9.8-15-17.5-19.3c-5.4-3.6-11.8-5.8-18.5-6.6c-16.5-2.9-36.3,0.1-55.8,8.4c-7.2,3-13.9,6.5-19.9,10.4l-7.6,4.8l4.6,7.8
		l14.3,24.1c0,0,4.4,7.4,4.4,7.4l7.7-3.8l1.1-0.5l35.5,79.2l3.4,7.6l7.9-2.5l19.2-6.1l8.4-2.7l-2.2-8.5l-10.2-39.2
		c2.9-2.2,5.7-4.5,8.2-6.9c-0.6,4.7-0.3,9.4,1,14c2.7,9.5,8.9,17,17.5,21.1c9.3,4.5,20.7,4.5,31.2,0c5.3-2.3,10-5.5,13.9-9.4
		l1.4,15.6l33.6-4.9l0-30.2l70.3,34.8v-33.7c2.8-0.2,5.7-0.7,8.6-1.4c7.8-1.9,14.4-4.4,20.2-8l-3,18l37.9,6l2.1-13.7l9.9,18.3
		l6-11.7l2.2,19.1l43,7.6l-2.3-14.5c5.9,0.7,12.1-0.1,18.1-2.4c1.4-0.5,2.8-1.2,4.2-1.9l-1.7,15.4l28.6,4l0.2,11.7l29.8,9.4
		l38.8-117L480.8,56.1z M223.8,92.1l9-8.8c-0.4,4-0.2,8.2,0.7,12.5L223.8,92.1z M312.5,86.1l-6.2-5.6l6.6-7.1l2-2.1L312.5,86.1z
		 M91.5,100.1l-1.4,1.2l-0.5-1.7l-5.5-18c0,0-0.4-1.2-0.4-1.2l1.3-0.2c2.9-0.5,5.6-0.3,7.8,0.8c1.3,0.6,3.6,2.1,4.2,5
		C98.1,91.5,96.4,95.7,91.5,100.1z M266,88.2l-1,1.2l-0.8-1.4c-2.4-4.4-1.8-9.9,1.6-13.7c3.3-3.6,8.4-4.8,13-3l1.5,0.6l-1,1.2
		L266,88.2z"/>
	<path fill="#7D8069" d="M294.8,91.2c-0.1,0.1-0.2,0.3-0.3,0.4C294.6,91.4,294.8,91.3,294.8,91.2L294.8,91.2z"/>
	<polygon fill="#7D8069" points="308.3,90.3 309.4,83.4 312.5,86.1 306.3,80.6 312.9,73.5 310.6,75.9 310.7,75.6 308.7,77.7 
		302.1,84.8 	"/>
	<polygon fill="#7D8069" points="312.5,86.1 314.9,71.4 312.9,73.5 306.3,80.6 	"/>
	<polygon fill="#7D8069" points="223.8,92.1 223.9,92.1 223.9,92.1 	"/>
	<g>
		<path fill="#C8A008" d="M260.5,98.2c0.5,0.5,0,0.1,0.6,0.6l4.1-2.9c-0.6-0.4-1.2-0.9-1.8-1.4c-5.9-5.4-4.3-17.4-0.5-24
			C252.8,78.7,253.4,91.1,260.5,98.2z"/>
		<g>
			<path fill="#C8A008" d="M309.4,105c-6.7,5.5-14.3,9.1-24.4,11.6c-2.2,0.5-4.4,0.9-6.5,1.1c-16,1.6-29.4-5.8-34.5-17.7
				c-0.6-1.4-1.1-2.9-1.5-4.5c-2.4-10-0.4-19,4.6-26c0.5-0.7,1-1.3,1.5-2c-0.2,0.2-0.5,0.4-0.7,0.6c-1.9,1.7-3.6,3.6-5,5.6
				c-5,7-7,16-4.6,26c0.4,1.5,0.9,3,1.5,4.5c5.1,11.9,18.5,19.3,34.5,17.7c2.1-0.2,4.3-0.6,6.5-1.1c10.1-2.4,17.7-6,24.4-11.6
				c1.6-1.4,3.2-2.8,4.8-4.4l-0.2-0.1C309.7,104.7,309.5,104.9,309.4,105z"/>
			<polygon fill="#C8A008" points="214.5,49.5 213.8,48.9 196.6,73.1 196.6,74.7 			"/>
			<polygon fill="#C8A008" points="310.7,75.6 310.6,75.9 312.9,73.5 314.9,71.4 312.5,86.1 309.4,83.4 308.3,90.3 302.1,84.8 
				308.7,77.7 			"/>
			<polygon fill="#C8A008" points="298.1,27.4 287.7,13.2 283.9,17.9 292.8,30 			"/>
			<path fill="#C8A008" d="M118,69.6c-2.8-6.5-7.7-11.6-14.1-15.2c-4.6-3.1-10-4.6-15-5.2C74.7,46.7,57,49,38.4,56.9
				c-6.6,2.8-12.8,6-18.5,9.7l0.7,1.2c4.3-2.4,8.8-4.7,13.6-6.7c18.6-7.9,36.3-10.3,50.5-7.8c5,0.6,10.3,2.1,15,5.2
				c6.4,3.6,11.3,8.7,14.1,15.2c5,11.6,0.6,27-11.3,39.9C117.4,100,123.5,82.4,118,69.6z"/>
			<path fill="#C8A008" d="M178.4,107.4c-0.1-0.6-0.3-1.3-0.5-1.9c-1.7-5.9-5.1-10.5-9.7-13.6c-7.4-5-17.8-6.1-28.1-1.7
				c-5.4,2.3-10.2,5.9-13.9,10.3c2.9-2.5,6.1-4.5,9.7-6.1c10.3-4.4,20.7-3.3,28.1,1.7c4.6,3.1,8.1,7.8,9.7,13.6
				c0.2,0.6,0.3,1.3,0.5,1.9c0.5,2.2,0.6,4.5,0.6,6.8c-0.2,6.8-2.7,13.6-6.9,19.3c-0.6,0.9-1.4,1.8-2.1,2.6c2.4-2,4.5-4.3,6.3-6.8
				c4.2-5.8,6.7-12.6,6.9-19.3C179.1,111.9,178.9,109.6,178.4,107.4z"/>
			<path fill="#C8A008" d="M150,98.8c0,0.1,4.2-4.2,4.1-4.2c-5.3-0.2-7.5,4.8-7.7,5.2C147.5,99.3,148.7,98.9,150,98.8z"/>
			<path fill="#C8A008" d="M160,104.9c0.2,0.7,0.3,1.4,0.3,2.2c0,1.1-0.2,2.2-0.7,3.1c0.8-0.4,6.9-3.4,4.6-9.7
				C164.3,100.8,159.8,104.9,160,104.9z"/>
			<path fill="#C8A008" d="M135.9,108.4c0-2.6,4.4-8.9,5.8-11c-7,4.5-10,10.5-10,15.2c0,8.1,7.1,14.6,15.6,14.6
				c4,0,11.4-2.1,16.2-9.9c-2.5,1.7-8.9,5.7-12.3,5.7C142.7,123,135.9,116.6,135.9,108.4z"/>
			<polygon fill="#C8A008" points="195.9,148.6 200.1,148 200.1,111.5 195.8,115.8 			"/>
			<polygon fill="#C8A008" points="192.5,80.4 196.6,74.6 194.9,44.8 165.9,53.4 166,56.3 190.7,49 			"/>
			<g>
				<polygon fill="#C8A008" points="218,44.7 214.5,49.5 234.9,68.7 238.9,64.5 				"/>
				<path fill="#C8A008" d="M250.7,120.5c-5.9-3.6-10.5-8.6-13.6-14.4l-27.3-10.8l-4,4.2l27.1,10.8c3.1,5.8,7.7,10.7,13.6,14.4
					c5.7,3.5,12.2,5.6,19,6.2v13.4l4.2,2.1v-19.7C262.8,126.1,256.4,124,250.7,120.5z"/>
			</g>
			<g>
				<path fill="#C8A008" d="M280.6,100.5c6.7-1.6,10.5-5.1,13.9-8.9c-2.5,2.1-5.5,3.8-9.7,4.8c-2.3,0.6-5.4,1.1-7.4,0.7l-4.1,4.4
					C275.2,101.6,278.3,101.1,280.6,100.5z"/>
				<path fill="#C8A008" d="M269.6,55c-6.8,1.6-12.7,4.7-17.4,8.8c-1.3,1.1-2.4,2.3-3.5,3.6c4.6-3.9,10.3-6.7,16.7-8.2
					c15.3-3.7,28.7,1,37,11.3l4.1-4.4C298.2,56,284.8,51.3,269.6,55z"/>
			</g>
			<path fill="#C8A008" d="M309.8,104.6c1.5-1.3,2.9-2.6,4.4-4.1l-3.5-3.2L299,87c-1.3,1.5-2.6,2.9-4.1,4.3l11.5,10.4L309.8,104.6z"
				/>
			<path fill="#C8A008" d="M393.9,144.2c-0.9-0.4-1.7-0.8-2.5-1.2c-8.1-4.3-13.8-11.8-16-21c-2.8-11.9,1.3-24.9,9.8-34.6l-6.7-43.4
				h-16.1l-0.7,4.2h12.6l6.7,43.4c-8.5,9.7-12.6,22.7-9.8,34.6c2.2,9.2,7.9,16.7,16,21c0.8,0.4,1.7,0.8,2.5,1.2l0.1,0.7l5,0.8
				L393.9,144.2z"/>
			<polygon fill="#C8A008" points="351.8,83.9 356,79.6 350.4,49 327.9,49 327.2,53.2 346.2,53.2 			"/>
			<polygon fill="#C8A008" points="354.4,124.4 355.8,127.5 364.7,104.4 360.5,108.6 			"/>
			<polygon fill="#C8A008" points="338,102.8 333.5,131.4 336.9,132 342.3,98.6 			"/>
			<path fill="#C8A008" d="M427.7,89.4c2.5,1.8,4.6,4,6.2,6.7c1.2,2.1,2.2,4.3,2.8,6.9c2.1,8.6-0.4,17.9-5.9,25.4
				c-0.6,0.8-1.1,1.5-1.8,2.2c2.2-1.9,4.2-4.1,6-6.4c5.5-7.5,7.9-16.8,5.9-25.4c-0.6-2.5-1.6-4.8-2.8-6.9c-1.6-2.7-3.7-4.9-6.2-6.7
				c-6.9-4.9-16.5-6.2-26.4-2.5c-4.2,1.6-8,4-11.3,7c-1.2,1.1-2.3,2.3-3.4,3.5c3.1-2.6,6.6-4.8,10.4-6.2
				C411.2,83.2,420.8,84.5,427.7,89.4z"/>
			<path fill="#C8A008" d="M413.1,91.3c0.1,0.2,4.2-4.2,4.2-4.2c-5.2,0.2-7.6,2.7-7.4,3.9c-0.3,0.4-0.6,0.9-0.8,1.4
				C410.3,91.8,412.3,91.3,413.1,91.3z"/>
			<path fill="#C8A008" d="M422.8,97.8c0.2,0.7,0.3,1.4,0.3,2.2c0,1-0.3,1.9-0.7,2.8c0.8-0.4,7-2.3,4.6-9.2
				C427.1,93.8,422.7,97.8,422.8,97.8z"/>
			<path fill="#C8A008" d="M409,119.7c5.9,0.2,12.3-3.4,16.9-9.7c-2.7,1.8-9.2,5.5-12.8,5.3c-8.5-0.3-15.1-7-14.7-15.2
				c0.1-2.4,3.2-7.5,4.4-9.4c-4.5,3.3-8.5,9.5-8.6,13.9C393.9,112.8,400.5,119.4,409,119.7z"/>
			<polygon fill="#C8A008" points="486.4,66.3 485.2,71.2 505.8,75.7 474.2,171.3 476.8,172.1 510,71.5 			"/>
			<polygon fill="#C8A008" points="471.5,114.8 475.7,110.5 465.3,61.2 434.3,54.9 434,59.9 461.1,65.4 			"/>
			<polygon fill="#C8A008" points="447.2,152.7 450.6,153.2 458.9,106.4 454.7,110.6 			"/>
			<polygon fill="#C8A008" points="90.7,122.3 86.1,125.5 97.8,169.5 103,168.6 			"/>
			<path fill="#C8A008" d="M100.1,99.2c-2.9,3.1-9.4,9.1-13.1,11.5l-2.2-7.2l-4.9-15.8L76.7,77l-3.1,3.9l3.1,10.7l4.9,15.8l2.2,7.2
				C89,111.3,96.3,105.2,100.1,99.2z"/>
		</g>
	</g>
	<path fill="#7D8069" d="M279.5,72c-4-1.5-9.7-1.1-12.7,2.3c-0.7,0.8-2.1,2.7-2.5,3.6c2.9-2.4,8.2-2.9,11.7-1.6L279.5,72z"/>
	<path fill="#7D8069" d="M96.4,86.3c-0.4-2.4-2.8-4.2-3.9-4.8c-2-1-5.5-1.1-8.1-0.6c0.5,1.6,1,3.5,1.2,4.2c1,0.1,2.7,0.4,3.6,0.9
		c1.1,0.5,3.1,1.8,3.5,4.2c0.6,3.2,0.4,6.1-0.9,8.6C95.6,95.1,97.3,91.2,96.4,86.3z"/>
	<g>
		<defs>
			<path id="SVGID_29_" d="M284.9,70.6c-6.4-5.8-16.2-5.4-22.1,1c-5.8,6.4-5.4,16.2,1,22.1c0.5,0.5,1.1,0.9,1.7,1.3L286,71.7
				C285.6,71.3,285.3,70.9,284.9,70.6z"/>
		</defs>
		<clipPath id="SVGID_30_">
			<use xlink:href="#SVGID_29_"  overflow="visible"/>
		</clipPath>
	</g>
	<g>
		<defs>
			<path id="SVGID_31_" d="M102.1,85.2c-1.6-8.8-13.1-13.6-24.5-7.4l2.9,10l4.6,14.9l2.1,6.8C95.8,103.9,104.4,97.3,102.1,85.2z"/>
		</defs>
		<clipPath id="SVGID_32_">
			<use xlink:href="#SVGID_31_"  overflow="visible"/>
		</clipPath>
	</g>
	
		<linearGradient id="SVGID_33_" gradientUnits="userSpaceOnUse" x1="116.1671" y1="-3.0798" x2="114.7248" y2="-139.8633" gradientTransform="matrix(1.1655 -4.680000e-002 4.680000e-002 1.1655 -41.4109 169.8631)">
		<stop  offset="0" style="stop-color:#3C5AA6"/>
		<stop  offset="1" style="stop-color:#2A75BB"/>
	</linearGradient>
	<path fill="url(#SVGID_33_)" d="M102.8,86.2c-1.7-9.3-13.9-14.5-26-7.9L79.8,89l4.9,15.8l2.2,7.2C96.1,106.1,105.2,99.1,102.8,86.2
		z M90.8,100.5c-1.3-4.3-4.2-13.6-4.2-13.6c0,0.1-0.6-2-1.3-4.3c2.6-0.5,5-0.3,7.1,0.7c1.1,0.5,3.1,1.8,3.5,4.2
		C96.9,92.8,95.1,96.7,90.8,100.5z"/>
	
		<linearGradient id="SVGID_34_" gradientUnits="userSpaceOnUse" x1="266.7298" y1="-4.6673" x2="265.2875" y2="-141.4508" gradientTransform="matrix(1.1074 -3.460000e-002 3.460000e-002 1.1074 -19.7034 164.8509)">
		<stop  offset="0" style="stop-color:#3C5AA6"/>
		<stop  offset="1" style="stop-color:#2A75BB"/>
	</linearGradient>
	<path fill="url(#SVGID_34_)" d="M285.8,71.4c-6.8-6.2-17.3-5.7-23.4,1c-6.2,6.8-5.7,17.3,1,23.4c0.6,0.5,1.2,1,1.8,1.4L287,72.6
		C286.6,72.1,286.2,71.7,285.8,71.4z M265.2,88.7c-2.1-3.9-1.7-8.9,1.5-12.4c3.1-3.4,7.8-4.3,11.8-2.8L265.2,88.7z"/>
	<polygon fill="#1E2D60" points="314.9,68.7 302.9,80.3 314.4,90.6 	"/>
	<g>
		
			<linearGradient id="SVGID_35_" gradientUnits="userSpaceOnUse" x1="252.3839" y1="387.7738" x2="250.6714" y2="225.3584" gradientTransform="matrix(1.1664 0 0 1.1664 -28.8832 -264.6143)">
			<stop  offset="0" style="stop-color:#3C5AA6"/>
			<stop  offset="1" style="stop-color:#2A75BB"/>
		</linearGradient>
		<path fill="url(#SVGID_35_)" d="M480.8,56.1l-3.8,15.8l-3.5-17.5L425.9,44l0.3,26.4l7.2,1.6l-0.5,4.8c-0.1,0-0.1-0.1-0.2-0.1
			c-8.9-4.7-19.9-5.2-30.2-1.3c-3.5,1.3-6.7,3.1-9.6,5.2l-7.1-45.2h-31.6l-0.9,5.2h-33.2l-3.8,23.3l-2.8-3.4
			c-8.1-9.9-19.7-15.4-32.7-15.6l28.2-15.2L289.2,0.2l-35.6,41l6.2,7.5c-5.6,2.3-10.4,5.4-14.4,9.2l-30.5-27.1l-10.7,20.4l0.4-19.6
			l-47.7,15.2l1.2,25.6l8.1-2.1l1.2,13c-9.3-4.2-20.4-4.1-30.7,0.3c-3.1,1.3-5.9,3-8.6,4.9c1.8-7.9,1.4-15.7-1.6-22.7
			c-3.6-8.2-9.8-15-17.5-19.3c-5.4-3.6-11.8-5.8-18.5-6.6c-16.5-2.9-36.3,0.1-55.8,8.4c-7.2,3-13.9,6.5-19.9,10.4l-7.6,4.8l4.6,7.8
			l14.3,24.1c0,0,4.4,7.4,4.4,7.4l7.7-3.8l1.1-0.5l35.5,79.2l3.4,7.6l7.9-2.5l19.2-6.1l8.4-2.7l-2.2-8.5l-10.2-39.2
			c2.9-2.2,5.7-4.5,8.2-6.9c-0.6,4.7-0.3,9.4,1,14c2.7,9.5,8.9,17,17.5,21.1c9.3,4.5,20.7,4.5,31.2,0c5.3-2.3,10-5.5,13.9-9.4
			l1.4,15.6l33.6-4.9l0-30.2l70.3,34.8v-33.7c2.8-0.2,5.7-0.7,8.6-1.4c7.8-1.9,14.4-4.4,20.2-8l-3,18l37.9,6l2.1-13.7l9.9,18.3
			l6-11.7l2.2,19.1l43,7.6l-2.3-14.5c5.9,0.7,12.1-0.1,18.1-2.4c1.4-0.5,2.8-1.2,4.2-1.9l-1.7,15.4l28.6,4l0.2,11.7l29.8,9.4
			l38.8-117L480.8,56.1z M312.9,73.5l2-2.1l-2.4,14.8l-6.2-5.6L312.9,73.5z M287.7,13.2l10.4,14.1l-29.8,14.7l-2.1-3.1L287.7,13.2z
			 M233.5,95.9l-9.7-3.8l9-8.8C232.5,87.4,232.7,91.6,233.5,95.9z M90.6,122.3l11.9,45.6L83.3,174L43.9,85.9c-2.1,1.1-6.1,3-9.7,4.8
			L19.8,66.6c5.7-3.6,11.9-6.8,18.5-9.7C57,49,74.7,46.7,88.9,49.2c5,0.6,10.3,2.1,15,5.2c6.4,3.6,11.3,8.7,14.1,15.2
			C124.8,85.4,113.4,108.3,90.6,122.3z M172.1,133.5c-4,5.5-9.5,10.1-16,12.9c-16.7,7.1-33.3,0-37.8-15.8
			c-4.3-15.3,5.7-33.5,21.9-40.5c10.3-4.4,20.7-3.3,28.1,1.7c4.6,3.1,8.1,7.8,9.7,13.6c0.2,0.6,0.3,1.3,0.5,1.9
			c0.5,2.2,0.6,4.5,0.6,6.8C178.8,121,176.3,127.7,172.1,133.5z M269.7,146.4L200,111.5l0.1,36.5l-18,2.5l-1.3-15.1
			c5.6-9.5,7.6-20.8,4.7-31.1c-1.6-5.7-4.5-10.6-8.5-14.5L174.4,59l-8.1,2.1l-0.4-7.8l29-8.6l1.8,29.9l21.3-30l20.9,19.9l-29.2,30.7
			l27.4,10.8c3.1,5.8,7.7,10.7,13.6,14.4c5.7,3.5,12.2,5.6,19,6.2V146.4z M285,116.6c-2.2,0.5-4.4,0.9-6.5,1.1
			c-16,1.6-29.4-5.8-34.5-17.7c-0.6-1.4-1.1-2.9-1.5-4.5c-2.4-10-0.4-19,4.6-26c1.4-2,3.1-3.9,5-5.6c4.7-4.2,10.6-7.2,17.4-8.8
			c15.3-3.7,28.7,1,36.9,11.1l-29,30.9c2,0.4,5.1-0.2,7.4-0.7c6.9-1.7,10.8-5.3,14.2-9.3l11.6,10.4l3.5,3.2
			c-1.5,1.6-3.1,3.1-4.8,4.4C302.7,110.5,295.1,114.1,285,116.6z M394.7,149.9l-23.7-3.6l-6.3-41.8l-8.9,23.1l-13.4-28.8h-0.1
			l-5.3,33.4l-22.3-3.9l3.1-18.6c0.8-0.8,1.7-1.6,2.5-2.4l7.2-7.4l-7-6.3l7.4-44.4h22.5l5.6,30.7l6.3-35.6h16.1l6.7,43.4
			c-8.5,9.7-12.6,22.7-9.8,34.6c2.2,9.2,7.9,16.7,16,21c0.8,0.4,1.7,0.8,2.5,1.2L394.7,149.9z M418.5,136.9
			c-5.8,2.2-11.5,2.6-16.6,1.6c-3.5-0.7-6.8-2.1-9.6-4.1c-4.5-3.2-7.8-8-9.2-14c-1.7-7.2-0.1-14.9,3.7-21.6c1.9-3.3,4.4-6.4,7.4-9.1
			c3.3-2.9,7.1-5.4,11.3-7c9.8-3.7,19.5-2.4,26.4,2.5c2.5,1.8,4.6,4,6.2,6.7c1.2,2.1,2.2,4.3,2.8,6.9c2.1,8.6-0.4,17.9-5.9,25.4
			c-2.3,3.2-5.2,6-8.5,8.4C424.1,134.4,421.4,135.8,418.5,136.9z M476.8,172.1l-16.5-4.9l-1.4-60.8l-8.3,46.9l-18-2.9l1.3-13.5
			c11.7-9.9,18-25.6,14.6-39.8c-1.5-6.3-4.7-11.8-9.3-15.9l1.5-15.9l-6.8-1.8l0.5-8.5l31,6.2l10.4,49.4l10.7-44.3l23.6,5.2
			L476.8,172.1z"/>
		
			<linearGradient id="SVGID_36_" gradientUnits="userSpaceOnUse" x1="379.6803" y1="328.2074" x2="379.372" y2="298.9677" gradientTransform="matrix(1.1664 0 0 1.1664 -28.8832 -264.6143)">
			<stop  offset="0" style="stop-color:#3C5AA6"/>
			<stop  offset="1" style="stop-color:#2A75BB"/>
		</linearGradient>
		<path fill="url(#SVGID_36_)" d="M427,93.6c0.2,0.7,0.3,1.5,0.3,2.2c-0.2,4.6-4.5,8.2-9.7,8c-5.2-0.2-9.2-4.1-9-8.7
			c0.2-4.3,4-7.7,8.8-8c-0.9-0.2-1.9-0.3-2.8-0.4c-8.6-0.4-15.7,5.8-16,13.4c-0.3,8.1,6.2,14.8,14.7,15.2c8.6,0.4,15.7-5.8,16-13.9
			C429.3,98.6,428.5,95.9,427,93.6z"/>
		
			<linearGradient id="SVGID_37_" gradientUnits="userSpaceOnUse" x1="154.6167" y1="334.4708" x2="154.3144" y2="305.7975" gradientTransform="matrix(1.1664 0 0 1.1664 -28.8832 -264.6143)">
			<stop  offset="0" style="stop-color:#3C5AA6"/>
			<stop  offset="1" style="stop-color:#2A75BB"/>
		</linearGradient>
		<path fill="url(#SVGID_37_)" d="M164.5,102.9c0,4.6-4.2,8.3-9.4,8.3c-5.2,0-9.4-3.7-9.4-8.3c0-4.3,3.7-7.9,8.4-8.3
			c-0.9-0.2-1.9-0.3-2.8-0.3c-8.7,0-15.5,6.4-15.5,14.1c0,8.1,6.8,14.5,15.3,14.5c8.7,0,15.5-6.4,15.5-14.5c0-2.8-0.9-5.5-2.5-7.7
			C164.4,101.4,164.5,102.2,164.5,102.9z"/>
	</g>
	<g>
		<path d="M487.8,174.5h4.1v0.6h-1.7v4.4h-0.7v-4.4h-1.7V174.5z"/>
		<path d="M492.5,179.5v-5h1l1.4,4.2l1.4-4.2h1v5h-0.6v-3c0-0.1,0-0.3,0-0.5c0-0.2,0-0.5,0-0.8l-1.4,4.2h-0.7l-1.4-4.2v0.2
			c0,0.1,0,0.3,0,0.6c0,0.3,0,0.4,0,0.6v3H492.5z"/>
	</g>
	<g>
		<path d="M487.3,203h4.1v0.6h-1.7v4.4H489v-4.4h-1.7V203z"/>
		<path d="M492,208v-5h1l1.4,4.2l1.4-4.2h1v5h-0.6v-3c0-0.1,0-0.3,0-0.5c0-0.2,0-0.5,0-0.8l-1.4,4.2h-0.7l-1.4-4.2v0.2
			c0,0.1,0,0.3,0,0.6c0,0.3,0,0.4,0,0.6v3H492z"/>
	</g>
	<g>
		<g>
			<path fill="#2D59A9" d="M88.7,231.2c-1.4,1-2.6,1.9-3.8,2.6c0.5-2.8,1.4-5.6,2.4-8.2c0,0.2-0.1,0.3-0.1,0.5c0,0.1,0,0.3,0,0.4
				C87.2,228.2,87.8,229.9,88.7,231.2z M114.2,212.8c-1.4-1.3-3.3-1.8-5.1-1.5c-0.3,0-0.6,0.1-0.8,0.2c-1,0.3-2.7,1.2-7.8,3.7
				l-2.1,1c-1.4,0.7-3.5,1.7-4.5,1.9c-0.1,0-0.1,0-0.2,0c-1.7,0.5-3.2,1.6-4.3,3c2.5-4.9,5.2-8.7,6.6-10.5c0.9-0.1,1.6-0.3,2-0.4
				c0.1,0,0.2-0.1,0.3-0.1c3.1-1.1,4.5-4.1,4.7-6.5c0-0.1,0-0.1,0-0.2c0-0.6,0-1.1-0.1-1.7c0-0.3-0.1-0.7-0.1-1.1c0-0.2,0-0.3,0-0.5
				l-0.1-0.4c-0.1-1-0.3-2.1-0.7-3.2c-0.6-1.8-1.9-3.2-3.5-4c-1.7-0.8-3.8-0.9-5.8-0.1c0,0-0.1,0-0.1,0.1c-2.5,1.1-5.7,4-7.5,6.2
				c-5.7,7.6-16.6,25.2-18,38.2c0,0.1,0,0.2,0,0.3c-0.4,6.5,2,9.9,4.1,11.6c1.9,1.6,5.4,3.3,11.1,2c0.1,0,0.2,0,0.2-0.1
				c5.5-1.6,11.3-4.8,17.4-9.7c1.2,2.5,4,4.7,8.3,3.8c0.1,0,0.1,0,0.2,0c2.9-0.7,6-3.4,6.5-7c0-0.1,0-0.2,0-0.4c0-1-0.1-1.9-0.2-2.8
				c-0.1-1-0.3-2-0.2-3c0.2-2,0.6-4.9,1.1-8.1c0,0,0.3-1.5,0.3-1.5c0.3-1.7,0.4-2.2,0.5-3.5c0-0.1,0-0.1,0-0.2
				C116.6,216.1,115.8,214.2,114.2,212.8z M102,196.2c0,0.1,0.1,0.2,0.1,0.2c0,0,0,0.1,0,0.1C102.1,196.4,102,196.3,102,196.2z"/>
			<path fill="#2D59A9" d="M137.1,204.5c-2.9-2.6-6.7-3.8-10-3.3c-0.7-0.1-1.9-0.3-3.7,0.1c-0.1,0-0.2,0-0.2,0.1
				c-3.4,0.8-4.7,3.2-5.2,4.1c-5.1,5.5-9,14.1-9.7,21c0,0.1,0,0.2,0,0.2c-0.3,5.5,1,9.6,3.9,12.2c2.8,2.5,6.7,3.3,11.5,2.4
				c0.1,0,0.2,0,0.3-0.1c8-1.8,17.1-9.4,18.4-21.6c0-0.1,0-0.2,0-0.3C142.8,211.4,139.7,206.9,137.1,204.5z"/>
			<path fill="#2D59A9" d="M156.4,199c-0.5-0.5-1.1-0.8-1.8-1.1c0-0.4,0-0.8,0-1.2c0-1.3,0-2.6,0.1-3.1c0.1-2.7-0.9-5.1-2.7-6.7
				c-1.8-1.6-4.3-2.2-7-1.7c-0.1,0-0.2,0-0.3,0.1c-4.1,1.1-7,4.6-7.5,9.1c-0.2,2.1-0.1,3.9,0,5.7c0,0.7,0.1,1.3,0.1,1.9
				c-2.6,1.3-4.3,4-4.6,7.3c0,0.1,0,0.2,0,0.3c-0.1,2.1,0.8,4.1,2.3,5.5c0.6,0.6,1.4,1,2.1,1.3c-0.1,1.8-0.1,3.7-0.2,4.7
				c-0.2,2.6-0.4,8.7-0.4,10.1c0,0.2,0,0.4,0.1,0.6c0.3,1.8,1.2,3.4,2.6,4.5c1.3,0.9,3.5,1.9,7.2,1.4c0.1,0,0.2,0,0.2,0
				c3.8-0.7,7-4,7.4-7.5c0-0.1,0-0.2,0-0.3c0.1-1.3,0.2-8.4,0.3-10.3c0-0.1,0-0.2,0-0.3c0-1.1,0-4.1,0.1-6.7c0,0,0.1,0,0.1,0
				c2.5-1.4,4.2-4.2,4.4-7.2c0-0.1,0-0.1,0-0.2C159,202.8,158.1,200.5,156.4,199z"/>
			<path fill="#2D59A9" d="M173.7,196.2c-0.5-0.5-1.1-0.9-1.8-1.2c0-0.5,0-1,0-1.5c0-1.4,0-2.8,0.1-3.3c0.1-2.8-0.9-5.2-2.7-6.8
				c-1.8-1.6-4.2-2.2-6.8-1.8c-0.1,0-0.2,0-0.3,0.1c-4.2,1-7.1,4.6-7.6,9.3c-0.2,2.2-0.1,4.1,0,6c0,0.7,0.1,1.4,0.1,2.2
				c-2.6,1.3-4.4,4-4.7,7.4c0,0.1,0,0.2,0,0.3c-0.1,2.1,0.8,4.2,2.3,5.6c0.6,0.6,1.4,1,2.2,1.3c-0.1,1.9-0.1,3.9-0.2,4.9
				c-0.2,2.6-0.4,8.7-0.4,10.1c0,0.2,0,0.4,0.1,0.6c0.5,3.5,3.7,6.7,9.7,5.9c0.1,0,0.2,0,0.2,0c3.8-0.7,7.1-3.8,7.5-7.4
				c0-0.1,0-0.2,0-0.3c0.1-1.3,0.2-8.4,0.3-10.3c0-0.1,0-0.2,0-0.3c0-1.1,0-4.3,0.1-6.8c0,0,0,0,0.1,0c2.6-1.3,4.3-4.2,4.4-7.3
				c0-0.1,0-0.1,0-0.2C176.3,200,175.4,197.7,173.7,196.2z"/>
			<path fill="#2D59A9" d="M197.5,205.3c-2.2-13.5-8.4-15.7-13.2-15.1c-0.1,0-0.2,0-0.3,0.1c-4.1,0.8-11.2,5.7-13.2,7.6
				c-0.1,0.1-0.2,0.1-0.2,0.2c-1.6,1.6-2.5,3.6-2.7,5.7c0,0.1,0,0.2,0,0.3c-0.1,2.4,0.8,4.6,2.5,6.1c0.5,0.5,1.2,0.9,1.8,1.3
				c-3.2,3.1-6.7,7.6-7.2,13c0,0.1,0,0.3,0,0.4c0,2.3,0.8,4.4,2.4,5.8c2.5,2.3,5.9,2.2,8.3,1.9c0,0,0.1,0,0.1,0
				c1.2-0.2,4.2-0.7,7.5-2.3c1.4,0.8,3.2,1.1,5.3,0.9c0,0,0.1,0,0.1,0c1.2-0.2,5.4-0.9,7.1-4.2c0-0.1,0.1-0.2,0.1-0.3
				c1.6-3.6,2-8.2,2-8.7C198,216.6,198.4,210.3,197.5,205.3z M180.4,218.5C180.4,218.5,180.4,218.5,180.4,218.5
				C180.4,218.5,180.4,218.5,180.4,218.5C180.4,218.5,180.4,218.5,180.4,218.5z M180.4,219.2c0,0,0,0.1,0,0.1c0,0,0,0,0,0
				C180.5,219.3,180.4,219.3,180.4,219.2z"/>
			<path fill="#2D59A9" d="M235.5,209.7c-1.6-1.6-3.8-2.4-6.2-2.3c-0.1,0-0.3,0-0.4,0c-2,0.2-3.7,1.2-4.9,2.3c1-2.3,2.3-4.1,3.4-4.5
				c2.5-0.8,5.6-3.1,6.1-9.1c0-0.1,0-0.1,0-0.2c0.2-2.9-0.6-5.2-2.2-6.8c-1.1-1.1-3-2.3-6.1-2.1c-0.3,0-0.6,0.1-0.9,0.1
				c-5,1.1-17.8,14.3-19.4,28.7c0,0.1,0,0.2,0,0.3c-0.2,3.6,0.7,6.5,2.8,8.6c2.3,2.3,5.6,3.4,10.1,3.2c0.1,0,0.2,0,0.4,0
				c4.7-0.5,18-4.4,19.4-12.4c0-0.2,0.1-0.5,0.1-0.8C237.6,212.9,236.9,211.1,235.5,209.7z"/>
			<path fill="#2D59A9" d="M260.5,201.1c-1.7-11.1-5.9-16.7-12.6-16.6c-0.1,0-0.2,0-0.4,0c-4.2,0.4-11.5,5.2-13.6,7
				c-0.1,0.1-0.2,0.2-0.3,0.2c-1.6,1.6-2.5,3.6-2.7,5.8c0,0.1,0,0.2,0,0.3c-0.1,2.4,0.7,4.6,2.3,6.3c0.7,0.7,1.4,1.2,2.2,1.6
				c-3.3,3-7,7.4-7.5,13c0,0.1,0,0.3,0,0.4c0,2.9,1.2,4.7,2.2,5.7c2.4,2.3,5.7,2.5,8,2.4c0,0,0.1,0,0.1,0c1.2-0.1,4.2-0.4,7.5-1.7
				c1.4,0.9,3.1,1.3,5.2,1.3c0.1,0,0.1,0,0.2,0c1.3-0.1,5.7-0.5,7.5-4c0-0.1,0.1-0.2,0.1-0.3c1.6-3.4,2-7.9,2-8.7
				C261,212.7,261.4,206.3,260.5,201.1z M248.8,208.7c-0.1,0-0.2,0-0.3,0c0,0,0,0,0,0C248.6,208.7,248.7,208.7,248.8,208.7z
				 M243.5,213.8c0,0,0,0.1,0,0.1C243.5,213.9,243.5,213.8,243.5,213.8z M243.5,214.7C243.5,214.7,243.5,214.7,243.5,214.7
				C243.5,214.7,243.5,214.7,243.5,214.7z"/>
			<path fill="#2D59A9" d="M274.4,186.9c0-1,0.1-2,0.1-2.9c0-1.7,0.1-3.2,0.1-3.9c0.1-2.9-0.8-5.5-2.5-7.3c-1.5-1.6-3.7-2.6-6-2.6
				c-0.1,0-0.3,0-0.4,0c-4.6,0.3-8,4.1-8.5,9.6c-0.2,2.4-0.1,4.7-0.1,6.8c0,0.9,0,1.7,0,2.6c-2.3,1-4.3,3.4-4.7,7.6
				c0,0.1,0,0.2,0,0.3c-0.1,2.1,0.7,4.1,2.1,5.6c0.7,0.7,1.4,1.3,2.3,1.6c-0.1,2.3-0.2,4.9-0.3,6.1c-0.2,2.8-0.4,8.8-0.4,10.2
				c0,0.2,0,0.4,0.1,0.6c0.4,2.9,3,6.4,9,6.4c0.1,0,0.2,0,0.3,0c4.1-0.2,7.7-3.3,8.2-7c0-0.1,0-0.2,0-0.3c0.1-1.3,0.2-8.7,0.3-10.5
				c0-0.1,0-0.2,0-0.3c0-1.1,0-4.5,0.1-7.2c2.6-1.3,4.3-4.1,4.5-7.3c0-0.1,0-0.1,0-0.2C278.7,191.2,277,188.3,274.4,186.9z"/>
			<path fill="#2D59A9" d="M291.2,206.4c-0.1,0-0.3,0-0.4,0c-2.5,0.1-4.4,1.3-5.8,2.5c1-2.6,2.5-4.8,3.6-5.1c0,0-0.1,0-0.1,0
				c2.2-0.6,5.9-2.5,6.5-9.1c0-0.1,0-0.1,0-0.2c0.2-2.8-0.5-5.1-2.1-6.8c-1-1.1-2.8-2.4-5.7-2.5c-0.3,0-0.6,0-0.9,0
				c-5.7,0.8-18.3,13.9-19.8,28c0,0.1,0,0.2,0,0.3c-0.1,1.3-0.3,5.4,2.6,8.6c2.2,2.4,5.5,3.7,9.8,3.9c0.1,0,0.2,0,0.4,0
				c4.8-0.1,18.3-3.1,19.7-11.3c0-0.2,0.1-0.5,0.1-0.7C299.2,210,295.8,206.7,291.2,206.4z"/>
			<path fill="#2D59A9" d="M313.4,185.9c-0.2,0-0.3,0-0.5,0c-2,0-3.9,0.3-5.6,1c0-0.9,0.1-1.8,0.1-2.6c0.3-4.3,0.7-7.2,0.9-9.6
				c0.2-1.4,0.3-2.5,0.4-3.6c0,0,0-0.1,0-0.1c0.3-5.8-2.8-10.2-7.6-10.6c-0.1,0-0.2,0-0.4,0c-9.8-0.4-10.7,10.6-11,14.7
				c-0.5,6.8-0.2,15.6-0.1,22.6c0.1,3.3,0.1,6.2,0.1,8.2c0,0.1,0,0.1,0,0.2c0,0.1,0.5,13.2,1.4,16.2c0.1,0.3,0.2,0.7,0.4,1
				c1.8,3.7,5,4.1,8,4.3c0.1,0,0.3,0,0.4,0c2.6-0.1,4.8-1.2,6.1-3.1c1.2,1.4,3.1,2.5,5.7,2.8c0.2,0,0.3,0,0.5,0
				c5.4,0.2,9.1-2.9,9.6-7.8c0.1-1,0.4-2.8,0.7-4.6c0.3-2.3,0.7-4.4,0.8-5.7C324.5,191.1,318.6,186.6,313.4,185.9z"/>
			<path fill="#2D59A9" d="M344.3,168.5c-0.3-0.1-0.5-0.1-0.8-0.1c-4.8-0.2-6.8,4.4-8.3,8c-0.4,1-0.8,2-1.3,2.9
				c-0.1,0.2-0.3,0.5-0.5,0.8c-1.4,2.3-2.5,4.4-2.8,6.7c0,0.1,0,0.3,0,0.4c-0.2,4.4,2.9,7.9,7.3,8.5c0.2,0,0.4,0,0.6,0
				c4.5,0.1,8.8-5.1,10-6.9c0.1-0.1,0.2-0.3,0.2-0.4c1.5-2.8,3.2-7.1,3.4-9.2c0-0.2,0-0.3,0-0.5
				C352.2,175.2,349.4,169.5,344.3,168.5z"/>
			<path fill="#2D59A9" d="M359.6,207.9c0.6-1.6,0.7-3.2,0.8-4.2l0-0.2c0-0.1,0-0.2,0-0.4c0-5.5-5.8-13.9-15.4-15.4
				c-0.3,0-0.6-0.1-1-0.1c-6.6,0.2-10.2,11.1-11.2,18.8c-1.5,1.2-2.6,2.9-2.9,5.8c0,0.1,0,0.1,0,0.2c-0.1,2.1,0.8,4.4,2.4,5.9
				c0.8,5.6,3.9,10.8,9.9,11.7c0.3,0,0.5,0.1,0.8,0.1c2.2,0,4.8-1.1,10.4-4.4l0.4-0.2c3.5-2,8.9-5.2,9.6-10c0-0.2,0-0.3,0-0.5
				C363.8,211.8,362.2,209.2,359.6,207.9z M336.3,209.3c-0.1,0-0.2,0-0.3,0.1C336.2,209.3,336.3,209.3,336.3,209.3z"/>
			<path fill="#2D59A9" d="M400.5,210.1c-0.1-6-2.3-13.4-8.6-14.9c-0.2,0-0.3-0.1-0.5-0.1c-3-0.5-6.2,0-9,1.2
				c-1.6-1.5-3.5-2.5-5.7-2.9c-0.1,0-0.2,0-0.4-0.1c-2.6-0.3-5,0.4-7.2,1.7c-1.2-1-2.7-1.7-4.9-2c-0.1,0-0.3,0-0.4,0
				c-3.9-0.3-8.8,3.2-9.4,8.2c0,0.1,0,0.2,0,0.3c-0.1,1.7,0,3.6,0.2,5.8c0.2,2.4,0.4,5.1,0.4,8.4c0,1.5,0.2,8.6,0.8,11.3
				c0.1,0.3,0.2,0.6,0.3,0.9c1.1,2.6,3.9,4.4,7.5,4.9c0.1,0,0.2,0,0.2,0c2.2,0.2,4.7-0.3,6.5-1.6c1.2,1.2,3,2.3,5.9,2.7
				c0.1,0,0.2,0,0.3,0c2.8,0.3,5.1-0.3,6.9-1.8c0.1,0,0.1-0.1,0.2-0.2c1.3,1.7,3.3,2.8,6,3.3c0.1,0,0.1,0,0.2,0
				c2.9,0.4,5.3-0.2,7.2-1.7c1.2-1,2.7-2.7,3-5.8c0-0.1,0-0.1,0-0.2c0.1-1,0.1-2.2,0-3.5c0-1.3,0-2.7,0-4
				C400.4,217.2,400.5,212.6,400.5,210.1z"/>
			<path fill="#2D59A9" d="M434.2,217.5c-1.7-9.5-5.2-14.7-11.2-16.1c-0.1,0-0.2,0-0.3-0.1c-3.8-0.7-11,1.2-13.7,2.7
				c-0.1,0.1-0.3,0.1-0.4,0.2c-2.1,1.4-3.3,3.4-3.5,5.9c0,0.1,0,0.2,0,0.3c-0.1,3.4,1.8,6.2,4.2,7.8c-2.7,2-6.6,5.7-7.1,11.6
				c0,0.1,0,0.3,0,0.4c0,2.8,1,7.7,8.9,9.3c0,0,0.1,0,0.1,0c2.6,0.5,5.1,0.4,7.5-0.1c1.2,1.2,2.9,2.2,4.9,2.6c0.1,0,0.1,0,0.2,0
				c2.9,0.6,6.9,0,8.7-3.3c0.1-0.1,0.1-0.2,0.1-0.3c1.6-3.5,2-8.2,2-8.8C434.8,228.1,435.1,222.2,434.2,217.5z M421.5,223.2
				c0.5-0.1,1-0.2,1.5-0.1c0,0,0,0,0,0C422.5,223.1,422,223.1,421.5,223.2z M417.3,228.3c0,0,0,0.1,0,0.1
				C417.3,228.4,417.3,228.4,417.3,228.3z"/>
			<path fill="#2D59A9" d="M446.4,233.1c-0.3-2.6-0.7-5.9-0.7-8.4c0-1.8-0.2-4.9-0.4-8.5c-0.2-3.7-0.5-8.3-0.4-9.9
				c0.2-2.1,0.4-4,0.6-5.5c0.2-1.4,0.3-2.5,0.4-3.5c0-0.1,0-0.2,0-0.3c-0.1-4.2-3.5-7.3-7-8.4c-0.1,0-0.1,0-0.2-0.1
				c-3.4-1-5.8-0.1-7.2,0.9c-3.2,2.2-3.9,6.2-4.2,9c0,0,0,0.1,0,0.1c-0.3,5.3,0.1,11.3,0.5,16.7c0.2,3,0.4,5.9,0.4,7.9
				c0,3.9,0.2,7.8,0.3,10.6c0.1,1.4,0.1,2.7,0.1,3.2c0,0.1,0,0.2,0,0.3c0.1,1.8,1.1,6.3,8.1,8.1c0.1,0,0.1,0,0.2,0
				c3.4,0.7,5.6-0.2,6.9-1.2c1.7-1.3,2.8-3.2,3.1-5.5c0-0.1,0-0.2,0-0.4C446.9,237.2,446.8,235.8,446.4,233.1z"/>
			<path fill="#2D59A9" d="M458.5,236c-0.3-2.6-0.7-5.9-0.7-8.4c0-1.8-0.2-5.1-0.4-8.6c-0.2-3.5-0.5-7.9-0.4-9.4
				c0.2-2,0.4-3.7,0.6-5.1c0.2-1.3,0.3-2.4,0.4-3.3c0-0.1,0-0.2,0-0.3c-0.1-4.1-3.5-7.1-6.9-8.3c-0.1,0-0.1,0-0.2-0.1
				c-3.5-1.1-5.9-0.2-7.4,0.8c-3.2,2.1-3.9,6-4.1,8.7c0,0,0,0.1,0,0.1c-0.3,5,0.1,10.8,0.5,15.9c0.2,3,0.4,5.9,0.5,8
				c0,3.8,0.2,7.8,0.3,10.6c0.1,1.5,0.1,2.7,0.1,3.3c0,0.1,0,0.2,0,0.3c0.1,1.8,1,6.3,8,8.2c0.1,0,0.1,0,0.2,0
				c3.4,0.8,5.6-0.1,6.9-1.1c1.8-1.3,2.9-3.2,3.1-5.6c0-0.1,0-0.2,0-0.3C459,240.2,458.8,238.6,458.5,236z"/>
		</g>
		<path fill="#FFFFFF" d="M110.4,222.6c-0.5,3-1,6.2-1.2,8.7c-0.2,2.5,0.4,4.6,0.4,5.8c-0.1,1.2-1.5,2.2-2.4,2.4
			c-0.9,0.2-2,0.3-2.5-1.2c-0.3-0.7-0.3-2.2-0.2-4.2c0.2-2.2,0.4-3.9,0.6-5.2c-8.7,8.9-16.9,14.5-24,16.5c-6.4,1.5-8.9-2-8.6-8.1
			c1.1-10.6,10.2-26.4,16.9-35.5c1.5-2,4-4,5.3-4.6c0.9-0.4,1.9-0.3,2.3,0.9c0.3,0.6,0.4,1.7,0.5,2.6c0.1,1.1,0.2,1.9,0.1,2.3
			c-0.1,0.6-0.4,1.7-1.1,2c-0.3,0.1-0.7,0.2-1.1,0.2c-0.4,0-0.9-0.1-1.1,0c-0.3,0.1-1.2,0.4-2.3,1.7c-4.6,5.9-11.7,17.2-12.8,29.1
			c-0.2,4,1.3,5.1,4,4.5c4.1-1.2,13.4-7.8,19.6-15c0.4-0.4,0.7-0.8,1-1.2c-0.9,0.2-1.6,0.8-3.8,2c-2.3,1.2-3.2,2.2-4.9,2.6
			c-1.6,0.3-2.5-1.1-2.5-2.2c0.1-1.1,1.2-3,2.5-3.4c1.3-0.3,3.1-1.1,5.6-2.3c3.5-1.7,8.2-4.1,9.2-4.4c0.5-0.1,1.2,0.4,1.1,1.5
			C111,219.4,111,219.5,110.4,222.6z"/>
		<path fill="#FFFFFF" d="M122.1,208.9c0.8-0.8,0.7-1.9,2.4-2.4c1.6-0.3,1.9,0.3,3.4,0c3.1-0.5,9.7,2.4,9.2,12.6
			c-1.1,10.1-8.8,15.6-14.3,16.9c-5.6,1-9.6-0.6-9.2-9C114.2,221.2,117.7,213.6,122.1,208.9z M130,221.7c0.3-5.3-1.4-10-3.2-9.9
			c-1.9,0.6-5.3,7.1-5.9,13.3c-0.3,5.2,1.1,6.7,3.1,6.4C126.3,230.9,129.5,227.1,130,221.7z"/>
		<path fill="#FFFFFF" d="M139.9,211.7c-1.2,0.2-1.8-0.8-1.8-1.7c0.1-1.4,0.7-2.9,2.2-3.3c0.8-0.2,1.7-0.7,2.4-0.8
			c0.3-4.3-0.3-7.5-0.1-10.9c0.2-1.9,1.3-3.9,3.5-4.5c2.4-0.5,3.4,1.1,3.3,2.7c-0.1,1.6-0.1,7.1-0.3,10.5c0.9-0.3,1.3-0.9,2.3-1.1
			c1.4-0.2,2.2,0.9,2.2,2.5c-0.1,1.4-0.9,2.4-1.5,2.7c-1,0.5-2.2,0.9-2.8,1.1c-0.1,1.3-0.3,8.6-0.2,10.6c0,2.1-0.2,9-0.3,10.1
			c-0.1,1-1.4,2.5-3.1,2.8c-2.1,0.3-3.6-0.1-3.7-1.3c0-1.2,0.2-7.1,0.3-9.6c0.2-2.5,0.3-9.2,0.4-10.7
			C141.8,211.2,140.9,211.5,139.9,211.7z"/>
		<path fill="#FFFFFF" d="M157.2,208.8c-1.2,0.1-1.8-0.9-1.8-1.8c0.1-1.4,0.8-3,2.2-3.3c0.8-0.2,1.7-0.6,2.4-0.8
			c0.3-4.5-0.3-7.8,0-11.4c0.2-2,1.3-4.1,3.5-4.6c2.4-0.4,3.4,1.3,3.3,3c-0.1,1.7-0.1,7.4-0.3,11c0.9-0.3,1.3-0.9,2.3-1.1
			c1.4-0.2,2.2,1,2.2,2.7c-0.1,1.4-0.9,2.4-1.5,2.8c-1,0.5-2.2,0.8-2.8,1.1c-0.1,1.4-0.3,8.8-0.2,10.8c0,2.1-0.2,9-0.3,10.1
			c-0.1,1-1.4,2.5-3.1,2.7c-2.1,0.3-3.5-0.2-3.7-1.4c0-1.2,0.2-7,0.3-9.6c0.2-2.5,0.3-9.3,0.4-10.9
			C159.1,208.3,158.1,208.6,157.2,208.8z"/>
		<path fill="#FFFFFF" d="M185.3,222.3c-2.9,3-7.2,4.6-10.3,5c-3.1,0.4-4.7-0.2-4.7-2.3c0.3-3.8,3.1-7.3,6.8-10.8
			c3-3,6.3-5.9,7.3-6.7c0.6-0.5,1.1-0.8,1.6-1c-0.2-2.4-0.8-4.9-2.8-4.7c-1.8,0.3-4.4,2.3-5.5,3.6c-0.2,0.2-1.1,1.5-1.7,1.6
			c-1.1,0.1-2.7-0.8-2.6-2.7c0.1-1.1,0.6-1.9,1.2-2.5c2.1-1.9,8.2-5.8,10.5-6.2c2-0.2,5.5,0.2,7.3,10.7c0.8,4.2,0.4,10,0.3,11.2
			c-0.1,1.3-0.6,4.6-1.6,7c-0.4,0.7-2.3,1.2-3,1.3c-1.1,0.1-3.1,0.1-3-1.7C185.1,223.4,185.2,222.9,185.3,222.3z M178.7,218.2
			c-1.2,1.7-1.4,2.4-1.5,3.5c0,0.9,0.5,1.3,1.5,1.2c2.9-0.4,4.8-2.9,5.4-3.4c0.9-0.6,1.8-1.1,1.7-1c0.2-2,0.3-4.6,0.4-7.3
			C184.2,212.7,180.6,215.6,178.7,218.2z"/>
		<path fill="#FFFFFF" d="M216.9,215c-0.2,2.4,0.2,3.5,2.4,3.4c2.3-0.2,4.3-1.6,5.4-2.2c1.1-0.7,2.9-3.2,4.7-3.4
			c1.8-0.1,2.8,0.9,2.7,1.9c-0.7,3.8-9.9,7.4-14.7,7.9c-6.6,0.3-7.5-2.9-7.3-6.2c1.4-12.5,12.9-23.6,15.2-24.1
			c1.7-0.1,2.8,0.6,2.6,3.3c-0.2,2-0.7,3.9-2.5,4.5C220.5,202,217.4,210.4,216.9,215z"/>
		<path fill="#FFFFFF" d="M248.4,217.8c-2.9,2.8-7.1,4-10.2,4.2c-3.1,0.1-4.7-0.5-4.7-2.7c0.3-3.8,3.1-7.2,6.8-10.4
			c3-2.8,6.3-5.6,7.2-6.4c0.6-0.5,1.1-0.8,1.6-0.9c-0.2-2.5-0.8-5.2-2.8-5.3c-1.8,0.1-4.3,2-5.5,3.4c-0.2,0.2-1.1,1.5-1.7,1.5
			c-1.1,0-2.7-1.1-2.6-3.1c0.1-1.2,0.6-1.9,1.2-2.6c2-1.8,8.2-5.4,10.5-5.7c2-0.1,5.5,1,7.2,12.1c0.8,4.5,0.4,10.3,0.3,11.5
			c-0.1,1.3-0.5,4.7-1.6,6.9c-0.4,0.7-2.2,1.1-3,1.1c-1.1,0-3-0.2-3-2C248.1,219,248.2,218.4,248.4,217.8z M241.8,213.2
			c-1.2,1.6-1.4,2.4-1.5,3.4c0,0.9,0.5,1.4,1.5,1.3c2.9-0.2,4.8-2.5,5.4-3c0.9-0.5,1.8-1,1.7-0.8c0.2-2,0.4-4.7,0.4-7.4
			C247.3,208,243.7,210.7,241.8,213.2z"/>
		<path fill="#FFFFFF" d="M259.6,199.5c-1.2,0-1.8-1.3-1.8-2.3c0.1-1.6,0.8-3.3,2.3-3.4c0.8,0,1.6-0.4,2.3-0.5c0.3-5-0.2-9,0.1-13.2
			c0.2-2.3,1.3-4.6,3.5-4.7c2.4,0,3.3,2.2,3.2,4.2c-0.1,2-0.2,8.6-0.4,12.5c0.8-0.2,1.3-0.8,2.3-0.8c1.3,0.1,2.2,1.4,2.1,3.3
			c-0.1,1.6-0.9,2.5-1.5,2.8c-1,0.4-2.1,0.6-2.8,0.7c-0.1,1.5-0.4,9.4-0.3,11.5c0,2.2-0.2,9.2-0.3,10.2c-0.1,1-1.4,2.2-3,2.3
			c-2.1,0-3.5-0.7-3.7-1.8c0-1.2,0.2-7.1,0.4-9.7c0.2-2.6,0.4-9.9,0.5-11.6C261.5,199.3,260.6,199.5,259.6,199.5z"/>
		<path fill="#FFFFFF" d="M311.1,207.9c0.3-5.7-0.3-10.2-1.8-10.5c-2.6,0.1-7.1,6.5-7.6,10.7c-0.2,2.6-0.3,5.9-0.1,7.6
			c0.2,1.5,0.6,3.4,0.5,4.6c-0.1,1.3-1.2,1.9-2.4,1.9c-2.9-0.1-3.1-0.5-3.5-1.3c-0.5-1.8-1.1-11.9-1.2-15c0.1-6.4-0.7-20.9-0.1-30.5
			c0.6-7.4,2.1-9.9,5.5-9.8c2,0.2,3,2.4,2.8,5c-0.2,2.6-0.8,6.2-1.3,13.2c-0.3,4.8-0.1,11.1-0.3,15.8c1-3.2,5.4-8.6,11.1-8.5
			c3.9,0.5,6,6.6,5.2,17.6c-0.2,2.1-1.2,7.8-1.5,10.3c-0.2,1.6-1.1,3-4.1,3c-2-0.3-2.9-1.2-2.9-2.6
			C309.7,217.3,310.6,213.5,311.1,207.9z"/>
		<path fill="#FFFFFF" d="M338.6,181.7c1.9-3.8,3.1-8.1,4.6-8c2.1,0.4,3.5,3.4,3.5,5c-0.1,0.9-1.3,4.4-2.9,7.3
			c-1.4,2.3-4.3,4.5-5.3,4.4c-1.5-0.2-2.7-1.2-2.6-3C336.1,185.7,337.9,183.1,338.6,181.7z"/>
		<path fill="#FFFFFF" d="M343.5,214c-0.2,3.3,1.2,5.1,2,5.3c0.9,0.1,2.1-0.6,3.9-2.1c1.1-0.9,2.6-2.5,4.3-3.8
			c1.1-0.8,1.7-1.1,2.5-1.1c1.5,0.2,2.1,0.9,2,2.2c-0.3,2.3-4.5,4.7-7,6.2c-1.3,0.8-6.5,3.9-8.1,3.9c-4.2-0.6-5.7-5.9-5.5-10.1
			c0,0,0,0,0-0.1c-0.3,0.1-0.6,0.1-1.2,0.1c-0.6-0.1-1.1-1.1-1-1.9c0.2-1.9,0.7-2.2,2.6-3c0-0.5,0.1-1,0.1-1.4
			c0.8-8.6,4.4-15.2,6.2-15.2c6.9,1,10.8,7.1,10.8,10c-0.1,2-0.2,3.9-2.7,5.5c-2,1.1-7.8,3.7-8.9,4.5
			C343.5,213.3,343.5,213.7,343.5,214z M343.9,207.5c1.2-0.6,4.7-2,5.8-2.7c0.1-2.3-1.1-4.3-3.2-4.6
			C345.3,200.3,344.1,205,343.9,207.5z"/>
		<path fill="#FFFFFF" d="M374,225.8c0.1-0.9,1.3-12.2,1.3-15.3c0.1-2.8-0.4-6.1-2.1-6.5c-1.7-0.1-5.7,3.9-6.2,8.5
			c-0.4,6.2,1.1,10.6,0.9,13.5c-0.2,1.3-2.6,1.6-3.5,1.5c-1.7-0.2-2.9-0.9-3.3-1.7c-0.5-1.9-0.6-8-0.7-10.1c0-6.7-0.7-11-0.6-13.9
			c0.3-2.3,2.7-3.6,3.6-3.5c2.3,0.3,3.5,1.1,3.6,6.4c2-3.3,5.3-6.4,8.6-6c2.3,0.4,4.3,2.2,5,5.3c2.3-2.7,6.6-4,9.8-3.5
			c3.1,0.8,4.5,5.9,4.5,9.7c0,2.6-0.1,7.1-0.2,9.8c-0.1,2.7,0,5.7-0.1,7.4c-0.2,1.7-1.1,3.1-4.1,2.7c-3-0.5-3.3-1.9-3.2-3.6
			c0.3-3.6,1-10.4,1.3-13.6c0.2-2.9,0.4-6.8-1.6-7.3c-2-0.3-3.2,0.5-5.7,2.9c0,0.3-0.1,7.6-0.2,10.2c-0.1,2.7-0.1,5.7-0.2,7.4
			c-0.2,1.7-1,3-3.9,2.7C374.6,228.2,373.9,227.4,374,225.8z"/>
		<path fill="#FFFFFF" d="M422.2,232.2c-2.9,2.3-7,2.7-10.1,2.1c-3-0.6-4.6-1.7-4.6-4c0.3-3.9,3-6.7,6.7-8.9c2.9-2,6.2-3.8,7.1-4.3
			c0.5-0.3,1.1-0.4,1.5-0.4c-0.2-2.2-0.9-4.7-2.8-5.2c-1.8-0.3-4.3,0.7-5.4,1.6c-0.2,0.2-1.1,1-1.7,1c-1.1-0.3-2.6-1.6-2.6-3.4
			c0.1-1,0.5-1.6,1.1-2c2-1.1,7.9-2.5,10.2-2.1c2,0.5,5.4,1.7,7.2,11.8c0.8,4.1,0.5,9.7,0.4,10.9c-0.1,1.3-0.6,4.7-1.6,7
			c-0.4,0.7-2.2,0.7-2.9,0.5c-1.1-0.2-3-0.9-2.9-2.9C422,233.4,422.1,232.8,422.2,232.2z M415.7,225.9c-1.2,1.3-1.4,2.1-1.5,3.1
			c0,0.9,0.5,1.5,1.4,1.7c2.9,0.5,4.7-1.5,5.3-1.8c0.9-0.3,1.8-0.6,1.7-0.5c0.1-2,0.3-4.6,0.3-7.1
			C421.2,222.2,417.7,223.9,415.7,225.9z"/>
		<path fill="#FFFFFF" d="M437.2,193.6c1.4,0.5,3.3,1.8,3.3,3.4c-0.1,1.7-0.7,4.8-1,8.9c-0.2,3.4,0.8,15.1,0.8,18.8
			c0,4.9,1.2,11.5,1.2,13.4c-0.2,1.9-1.5,2.4-3.5,2c-1.8-0.5-3.9-1.4-4-3.1c0-2-0.5-8-0.5-13.9c0-5.9-1.4-16.3-0.9-24.3
			C433.1,193.9,434.7,192.9,437.2,193.6z"/>
		<path fill="#FFFFFF" d="M449.2,197.5c1.4,0.5,3.3,1.8,3.3,3.3c-0.1,1.6-0.6,4.4-0.9,8.4c-0.2,3.3,0.8,14.7,0.8,18.4
			c0,4.9,1.2,11.6,1.2,13.6c-0.2,1.9-1.5,2.5-3.5,2c-1.8-0.5-3.9-1.5-4-3.3c0-2.1-0.5-8.2-0.4-14c0-5.8-1.5-16-1-23.6
			C445.1,197.6,446.7,196.7,449.2,197.5z"/>
		<path fill="#FFFFFF" d="M278.5,213c-0.2,2.4,0.2,3.6,2.4,3.7c2.3,0,4.3-1.3,5.4-1.8c1-0.6,2.9-3,4.7-3c1.8,0.1,2.7,1.1,2.7,2.1
			c-0.7,3.8-9.8,6.7-14.6,6.8c-6.5-0.3-7.5-3.5-7.3-6.8c1.4-12.6,12.8-23,15.2-23.3c1.7,0.1,2.8,0.9,2.6,3.6c-0.2,2-0.7,3.9-2.5,4.4
			C282,200.1,279,208.4,278.5,213z"/>
		<g>
			<path fill="#2D59A9" d="M479.2,238.5c-0.5-0.5-0.8-1.1-1.3-1.5c0.9-1.3,1.3-2.5,1.4-4.4c0.1-0.8,0.2-2.1,0.3-3.7
				c0.3-3.2,0.7-7.6,0.9-11.7c0.2-3.9,0.7-7.3,0.9-9.4c0.1-1,0.2-1.5,0.2-2c0.4-5-3.2-9.1-8.3-9.5c-2.1-0.2-4.4,0.7-6.2,2.2
				c-1.8,1.6-2.9,3.7-3.1,5.7c-0.1,1-0.1,3,0,6.5c0,3.4,0,7.6-0.1,9.1c-0.1,2-0.3,5.7-0.4,8.7c-0.1,1.8-0.1,3.6-0.2,4.1
				c-0.1,1.4,0.1,2.4,0.9,3.6c-2.3,1.3-3.8,3.7-4.1,6.3c-0.2,2.2,0.4,4.2,1.8,5.8c1.8,2.1,4.6,3.2,8.6,3.4c5.1,0.3,10.6-1.9,11-6.6
				C481.8,243.2,480.9,240.5,479.2,238.5z"/>
			<path fill="#FFFFFF" d="M473.1,200.9c2.7,0.2,4.2,2.3,4,4.6c-0.1,1-0.8,5.8-1.2,11.4c-0.4,6.1-1.1,12.9-1.3,15.3
				c-0.1,1.8-0.9,3.2-3,3.2c-2.9-0.1-3.7-2-3.6-3.5c0.1-1.4,0.2-8.5,0.4-11.7c0.2-3.1,0-13.7,0.1-15.6
				C468.9,202.9,471.1,200.8,473.1,200.9z M471.3,238.8c3.1,0.2,5.7,4.1,5.3,5.8c-0.3,1.4-2.9,2.4-5.6,2.2c-3.7-0.2-5.6-1.4-5.4-3.8
				C465.8,241.4,469.1,238.7,471.3,238.8z"/>
		</g>
	</g>
</g>
</svg>
